<svg width="823" height="671" viewBox="0 0 823 671" fill="none" xmlns="http://www.w3.org/2000/svg">
<path d="M541.631 449.591C550.034 438.387 561.866 422.569 567.925 414.44C608.89 359.477 687.565 256.037 713.704 222.772C729.669 202.455 730.676 201.226 731.342 201.245C733.661 201.311 755.244 222.95 765.268 235.261C810.54 290.854 830.016 365.384 819.299 442.02C808.832 516.866 767.211 584.476 706.417 625.388C661.52 655.603 607.971 670.963 553.007 669.394C505.362 668.034 465.393 654.194 433.839 634.75L418.979 625.594M497.204 435.44C476.848 420.152 456.826 399.187 441.215 376.815C422.571 350.095 407.294 313.669 402.136 283.636C398.654 263.361 397.892 235.056 400.28 214.697C405.652 168.902 423.1 128.052 453.137 90.9439C494.88 39.3744 550.652 8.76815 617.398 0.8015C631.349 -0.863715 668.482 0.207831 683.44 2.70728C720.906 8.96764 752.755 21.9146 782.049 42.7939C795.624 52.4694 796.645 53.2791 796.615 54.3446C796.603 54.7762 794.238 58.1565 791.359 61.8562C785.328 69.6086 730.592 140.809 716.52 159.207C674.249 214.47 622.615 282.772 584.889 333.327C575.544 345.851 560.378 366.164 551.186 378.467C541.994 390.77 527.907 409.716 519.881 420.569C511.854 431.422 504.92 440.298 504.472 440.293C504.023 440.288 500.753 438.104 497.204 435.44Z" fill="white"/>
<path d="M4.41201 0.212341C2.08248 0.212341 0.207764 2.18438 0.207764 4.6349V665.607C0.207764 668.058 2.08248 670.03 4.41201 670.03H266.727C267.483 670.03 268.191 669.821 268.803 669.456H390.201C391.636 669.456 392.79 668.242 392.79 666.733V387.31C392.79 385.801 391.636 384.585 390.201 384.585H319.072C328.35 401.393 333.205 420.163 333.205 439.228C333.205 454.431 330.118 469.485 324.119 483.531C318.12 497.577 309.327 510.339 298.243 521.089C287.159 531.839 273.999 540.367 259.517 546.185C245.035 552.003 229.512 554.997 213.837 554.997C182.178 554.997 151.817 542.8 129.431 521.089C107.046 499.378 94.4695 469.932 94.4696 439.228C94.4696 408.524 107.046 379.078 129.431 357.367C151.817 335.656 182.178 323.459 213.837 323.459C233.784 323.458 253.413 328.307 270.931 337.56V4.6349C270.931 2.18439 269.056 0.212341 266.727 0.212341H4.41201Z" fill="white" stroke="#F9F9F9" stroke-width="0.415624"/>
</svg>
