<svg width="822" height="671" viewBox="0 0 822 671" fill="none" xmlns="http://www.w3.org/2000/svg">
<path d="M541.423 449.591C549.826 438.387 561.658 422.569 567.717 414.44C608.683 359.477 687.357 256.037 713.496 222.772C729.461 202.455 730.468 201.226 731.134 201.245C733.454 201.311 755.036 222.95 765.061 235.261C810.332 290.854 829.809 365.384 819.091 442.02C808.624 516.866 767.003 584.476 706.209 625.388C661.312 655.603 607.763 670.963 552.799 669.394C505.154 668.034 465.185 654.194 433.631 634.75L418.771 625.594M496.996 435.44C476.64 420.152 456.618 399.187 441.008 376.815C422.363 350.095 407.086 313.669 401.928 283.636C398.447 263.361 397.685 235.056 400.073 214.697C405.444 168.902 422.892 128.052 452.929 90.9439C494.673 39.3744 550.444 8.76815 617.19 0.8015C631.141 -0.863715 668.274 0.207831 683.233 2.70728C720.699 8.96764 752.547 21.9146 781.841 42.7939C795.417 52.4694 796.437 53.2791 796.407 54.3446C796.395 54.7762 794.03 58.1565 791.152 61.8562C785.121 69.6086 730.384 140.809 716.312 159.207C674.041 214.47 622.407 282.772 584.682 333.327C575.337 345.851 560.17 366.164 550.978 378.467C541.787 390.77 527.699 409.716 519.673 420.569C511.647 431.422 504.712 440.298 504.264 440.293C503.815 440.288 500.545 438.104 496.996 435.44Z" fill="#264ED2"/>
<path d="M4.20425 0.212341C1.87472 0.212341 0 2.18438 0 4.6349V665.607C0 668.058 1.87472 670.03 4.20425 670.03H266.519C267.276 670.03 267.983 669.821 268.596 669.456H389.994C391.428 669.456 392.582 668.242 392.582 666.733V387.31C392.582 385.801 391.428 384.585 389.994 384.585H318.864C328.142 401.393 332.997 420.163 332.997 439.228C332.997 454.431 329.91 469.485 323.911 483.531C317.912 497.577 309.12 510.339 298.035 521.089C286.951 531.839 273.792 540.367 259.309 546.185C244.827 552.003 229.305 554.997 213.629 554.997C181.971 554.997 151.609 542.8 129.224 521.089C106.838 499.378 94.2618 469.932 94.2618 439.228C94.2618 408.524 106.838 379.078 129.224 357.367C151.609 335.656 181.971 323.459 213.629 323.459C233.576 323.458 253.206 328.307 270.723 337.56V4.6349C270.723 2.18439 268.849 0.212341 266.519 0.212341H4.20425Z" fill="#264ED2"/>
</svg>
