<svg width="19" height="19" viewBox="0 0 19 19" fill="none" xmlns="http://www.w3.org/2000/svg">
<path d="M9.375 0C7.5208 0 5.70824 0.549834 4.16653 1.57997C2.62482 2.61011 1.4232 4.07428 0.713633 5.78734C0.00406201 7.5004 -0.181594 9.3854 0.180142 11.204C0.541879 13.0225 1.43476 14.693 2.74588 16.0041C4.05699 17.3152 5.72746 18.2081 7.54603 18.5699C9.3646 18.9316 11.2496 18.7459 12.9627 18.0364C14.6757 17.3268 16.1399 16.1252 17.17 14.5835C18.2002 13.0418 18.75 11.2292 18.75 9.375C18.7474 6.8894 17.7588 4.50636 16.0012 2.74877C14.2436 0.991188 11.8606 0.00262484 9.375 0ZM9.375 17.3077C7.80606 17.3077 6.27236 16.8424 4.96783 15.9708C3.66331 15.0991 2.64656 13.8602 2.04615 12.4107C1.44574 10.9612 1.28865 9.3662 1.59474 7.82741C1.90082 6.28862 2.65634 4.87515 3.76574 3.76574C4.87515 2.65633 6.28862 1.90082 7.82741 1.59473C9.3662 1.28865 10.9612 1.44574 12.4107 2.04615C13.8602 2.64655 15.0991 3.66331 15.9708 4.96783C16.8424 6.27236 17.3077 7.80606 17.3077 9.375C17.3053 11.4781 16.4688 13.4945 14.9816 14.9816C13.4945 16.4688 11.4782 17.3053 9.375 17.3077ZM15.1442 9.375C15.1442 9.56626 15.0683 9.74969 14.933 9.88493C14.7978 10.0202 14.6143 10.0962 14.4231 10.0962H9.375C9.18374 10.0962 9.00031 10.0202 8.86507 9.88493C8.72983 9.74969 8.65385 9.56626 8.65385 9.375V4.32692C8.65385 4.13566 8.72983 3.95223 8.86507 3.81699C9.00031 3.68175 9.18374 3.60577 9.375 3.60577C9.56626 3.60577 9.74969 3.68175 9.88493 3.81699C10.0202 3.95223 10.0962 4.13566 10.0962 4.32692V8.65384H14.4231C14.6143 8.65384 14.7978 8.72982 14.933 8.86507C15.0683 9.00031 15.1442 9.18374 15.1442 9.375Z" fill="white"/>
</svg>
