<svg width="19" height="19" viewBox="0 0 19 19" fill="none" xmlns="http://www.w3.org/2000/svg">
<path d="M18.0288 0H0.721154C0.529892 0 0.346464 0.0987722 0.211221 0.274588C0.0759785 0.450403 0 0.68886 0 0.9375V16.875C0 17.3723 0.151957 17.8492 0.422442 18.2008C0.692927 18.5525 1.05978 18.75 1.44231 18.75H17.3077C17.6902 18.75 18.0571 18.5525 18.3276 18.2008C18.598 17.8492 18.75 17.3723 18.75 16.875V0.9375C18.75 0.68886 18.674 0.450403 18.5388 0.274588C18.4035 0.0987722 18.2201 0 18.0288 0ZM9.375 9.97851L2.57542 1.875H16.1746L9.375 9.97851ZM6.73468 9.375L1.44231 15.6809V3.06914L6.73468 9.375ZM7.80198 10.6465L8.88371 11.9414C9.01676 12.1002 9.19079 12.1883 9.37139 12.1883C9.552 12.1883 9.72603 12.1002 9.85907 11.9414L10.9408 10.6465L16.1692 16.875H2.57542L7.80198 10.6465ZM12.0153 9.375L17.3077 3.06797V15.682L12.0153 9.375Z" fill="white"/>
</svg>
